<svg xmlns="http://www.w3.org/2000/svg" xmlns:xlink="http://www.w3.org/1999/xlink" id="Layer_2" data-name="Layer 2" viewBox="0 0 1015.79 327.36"><defs><style>      .cls-1 {        fill: url(#linear-gradient);      }      .cls-2 {        fill: #008041;      }      .cls-3 {        fill: #fff;      }      .cls-4 {        fill: #a7cd39;      }      .cls-5 {        fill: #5c5131;      }      .cls-6 {        fill: url(#linear-gradient-3);      }      .cls-7 {        fill: url(#linear-gradient-4);      }      .cls-8 {        fill: url(#linear-gradient-2);      }      .cls-9 {        fill: url(#linear-gradient-6);      }      .cls-10 {        fill: url(#linear-gradient-5);      }    </style><linearGradient id="linear-gradient" x1="40.92" y1="167.13" x2="247.03" y2="167.13" gradientUnits="userSpaceOnUse"><stop offset="0" stop-color="#a4ce3b"></stop><stop offset="1" stop-color="#64bd57"></stop></linearGradient><linearGradient id="linear-gradient-2" x1="0" y1="89.12" x2="109.3" y2="89.12" xlink:href="#linear-gradient"></linearGradient><linearGradient id="linear-gradient-3" x1="159.53" y1="278.27" x2="244.29" y2="278.27" xlink:href="#linear-gradient"></linearGradient><linearGradient id="linear-gradient-4" x1="238.38" y1="131.96" x2="297.84" y2="131.96" xlink:href="#linear-gradient"></linearGradient><linearGradient id="linear-gradient-5" x1="22.78" y1="288.82" x2="89.53" y2="288.82" xlink:href="#linear-gradient"></linearGradient><linearGradient id="linear-gradient-6" x1="180.68" y1="34.53" x2="240.5" y2="34.53" xlink:href="#linear-gradient"></linearGradient></defs><g id="Layer_1-2" data-name="Layer 1"><g><path class="cls-4" d="m376.38,225.07h-49.75v-86.38h49.75v15.01h-31.43v18.96h29.25v15.01h-29.25v22.27h31.43v15.12Z"></path><path class="cls-4" d="m434.84,152.7c-3.51,0-6.61.68-9.31,2.04-2.7,1.36-4.96,3.32-6.79,5.88-1.83,2.56-3.22,5.65-4.17,9.28-.95,3.62-1.42,7.7-1.42,12.23,0,6.11.76,11.31,2.27,15.63,1.52,4.31,3.87,7.6,7.06,9.87,3.19,2.27,7.31,3.4,12.35,3.4,3.51,0,7.02-.39,10.55-1.18,3.52-.79,7.36-1.91,11.49-3.37v15.36c-3.82,1.58-7.58,2.71-11.29,3.4-3.7.69-7.86,1.03-12.47,1.03-8.9,0-16.22-1.84-21.95-5.52-5.73-3.68-9.98-8.84-12.73-15.48-2.76-6.64-4.14-14.39-4.14-23.25,0-6.54.89-12.53,2.66-17.96s4.37-10.14,7.8-14.12c3.43-3.98,7.66-7.05,12.7-9.22,5.04-2.17,10.83-3.25,17.37-3.25,4.29,0,8.6.54,12.91,1.62,4.31,1.08,8.44,2.57,12.38,4.46l-5.91,14.89c-3.23-1.54-6.48-2.88-9.75-4.02-3.27-1.14-6.48-1.71-9.63-1.71Z"></path><path class="cls-4" d="m557.41,181.76c0,6.66-.83,12.71-2.48,18.17-1.65,5.46-4.17,10.15-7.53,14.09-3.37,3.94-7.63,6.96-12.79,9.07s-11.26,3.16-18.31,3.16-13.16-1.05-18.32-3.16-9.42-5.13-12.79-9.07c-3.37-3.94-5.88-8.64-7.53-14.12-1.65-5.47-2.48-11.56-2.48-18.26,0-8.94,1.47-16.73,4.4-23.37,2.93-6.64,7.45-11.79,13.56-15.45,6.1-3.66,13.86-5.49,23.28-5.49s17.08,1.83,23.13,5.49c6.05,3.66,10.54,8.82,13.47,15.48,2.93,6.66,4.4,14.48,4.4,23.46Zm-63.04,0c0,6.03.76,11.22,2.27,15.57,1.52,4.35,3.89,7.7,7.12,10.04,3.23,2.34,7.4,3.52,12.53,3.52s9.41-1.17,12.64-3.52c3.23-2.34,5.58-5.69,7.06-10.04,1.48-4.35,2.22-9.54,2.22-15.57,0-9.06-1.69-16.19-5.08-21.39-3.39-5.2-8.96-7.8-16.72-7.8-5.16,0-9.36,1.17-12.61,3.52-3.25,2.34-5.63,5.69-7.15,10.04-1.52,4.35-2.27,9.56-2.27,15.63Z"></path><path class="cls-5" d="m649.84,225.07h-18.26v-37.28h-34.21v37.28h-18.32v-86.38h18.32v33.85h34.21v-33.85h18.26v86.38Z"></path><path class="cls-5" d="m753.8,181.76c0,6.66-.83,12.71-2.48,18.17-1.65,5.46-4.17,10.15-7.53,14.09-3.37,3.94-7.63,6.96-12.79,9.07s-11.26,3.16-18.31,3.16-13.16-1.05-18.32-3.16-9.42-5.13-12.79-9.07c-3.37-3.94-5.88-8.64-7.53-14.12-1.65-5.47-2.48-11.56-2.48-18.26,0-8.94,1.47-16.73,4.4-23.37,2.93-6.64,7.45-11.79,13.56-15.45,6.1-3.66,13.86-5.49,23.28-5.49s17.08,1.83,23.13,5.49c6.05,3.66,10.54,8.82,13.47,15.48,2.93,6.66,4.4,14.48,4.4,23.46Zm-63.04,0c0,6.03.76,11.22,2.27,15.57,1.52,4.35,3.89,7.7,7.12,10.04,3.23,2.34,7.4,3.52,12.53,3.52s9.41-1.17,12.64-3.52c3.23-2.34,5.58-5.69,7.06-10.04,1.48-4.35,2.22-9.54,2.22-15.57,0-9.06-1.69-16.19-5.08-21.39-3.39-5.2-8.96-7.8-16.72-7.8-5.16,0-9.36,1.17-12.61,3.52-3.25,2.34-5.63,5.69-7.15,10.04-1.52,4.35-2.27,9.56-2.27,15.63Z"></path><path class="cls-5" d="m812.02,225.07l-20.8-67.77h-.53c.08,1.62.21,4.05.38,7.3.18,3.25.34,6.71.5,10.37s.24,6.97.24,9.93v40.18h-16.37v-86.38h24.93l20.44,66.05h.35l21.68-66.05h24.93v86.38h-17.08v-40.88c0-2.72.05-5.85.15-9.39.1-3.54.23-6.92.38-10.13.16-3.21.27-5.62.35-7.24h-.53l-22.27,67.65h-16.78Z"></path><path class="cls-5" d="m943.03,225.07h-49.75v-86.38h49.75v15.01h-31.43v18.96h29.25v15.01h-29.25v22.27h31.43v15.12Z"></path><path class="cls-5" d="m1015.79,201.08c0,5.12-1.24,9.57-3.72,13.35s-6.1,6.7-10.84,8.74c-4.75,2.05-10.51,3.07-17.28,3.07-2.99,0-5.92-.2-8.77-.59-2.86-.39-5.59-.97-8.21-1.74-2.62-.77-5.11-1.72-7.47-2.87v-17.02c4.1,1.81,8.35,3.45,12.76,4.9,4.41,1.46,8.78,2.19,13.12,2.19,2.99,0,5.41-.39,7.24-1.18,1.83-.79,3.16-1.87,3.99-3.25.83-1.38,1.24-2.95,1.24-4.73,0-2.17-.73-4.02-2.19-5.55-1.46-1.54-3.46-2.97-6-4.31-2.54-1.34-5.41-2.78-8.6-4.31-2.01-.95-4.2-2.1-6.56-3.46-2.36-1.36-4.61-3.02-6.74-4.99-2.13-1.97-3.87-4.36-5.23-7.18-1.36-2.82-2.04-6.19-2.04-10.13,0-5.16,1.18-9.57,3.54-13.23,2.36-3.66,5.74-6.47,10.13-8.42,4.39-1.95,9.58-2.92,15.57-2.92,4.49,0,8.77.52,12.85,1.57,4.08,1.04,8.34,2.55,12.79,4.52l-5.91,14.24c-3.98-1.61-7.54-2.87-10.69-3.75-3.15-.89-6.36-1.33-9.63-1.33-2.29,0-4.23.36-5.85,1.09-1.62.73-2.84,1.75-3.66,3.07-.83,1.32-1.24,2.85-1.24,4.58,0,2.05.6,3.77,1.8,5.17,1.2,1.4,3.01,2.75,5.44,4.05,2.42,1.3,5.45,2.82,9.07,4.55,4.41,2.09,8.18,4.26,11.31,6.53,3.13,2.27,5.54,4.92,7.24,7.98,1.69,3.05,2.54,6.84,2.54,11.37Z"></path></g><g><polygon class="cls-1" points="247.03 166.3 247.03 226.63 228.86 237.12 201.91 221.56 159.53 246.02 159.53 277.15 143.97 286.13 40.92 226.63 40.92 148.26 54.65 156.19 109.3 124.63 109.3 68.15 143.97 48.13 238.38 102.63 224.33 110.75 224.33 153.19 247.03 166.3"></polygon><polygon class="cls-2" points="109.3 68.15 109.3 124.63 54.65 156.19 40.92 148.26 40.92 107.63 109.3 68.15"></polygon><polygon class="cls-8" points="109.3 61.53 109.3 68.15 40.92 107.63 40.92 148.26 0 124.63 0 61.53 54.65 29.98 109.3 61.53"></polygon><polygon class="cls-2" points="228.86 237.12 159.53 277.15 159.53 246.02 201.91 221.56 228.86 237.12"></polygon><polygon class="cls-6" points="244.29 246.02 244.29 294.96 201.91 319.43 159.53 294.96 159.53 277.15 228.86 237.12 244.29 246.02"></polygon><polygon class="cls-2" points="247.03 107.63 247.03 166.3 224.33 153.19 224.33 110.75 238.38 102.63 247.03 107.63"></polygon><polygon class="cls-7" points="297.84 110.75 297.84 153.19 261.08 174.41 247.03 166.3 247.03 107.63 238.38 102.63 261.08 89.52 297.84 110.75"></polygon><polygon class="cls-10" points="56.16 250.28 22.78 269.55 22.78 308.09 56.16 327.36 89.53 308.09 89.53 269.55 56.16 250.28"></polygon><polygon class="cls-9" points="210.59 0 180.68 17.27 180.68 51.8 210.59 69.07 240.5 51.8 240.5 17.27 210.59 0"></polygon></g><g><rect class="cls-3" x="103.99" y="137.35" width="32.81" height="32.81"></rect><rect class="cls-3" x="151.15" y="137.35" width="32.81" height="32.81"></rect><rect class="cls-3" x="103.99" y="181.68" width="32.81" height="32.81"></rect><rect class="cls-3" x="151.15" y="181.68" width="32.81" height="32.81"></rect></g></g></svg>